<?xml version="1.0" encoding="UTF-8" standalone="no"?>
<svg
   xmlns:dc="http://purl.org/dc/elements/1.1/"
   xmlns:cc="http://creativecommons.org/ns#"
   xmlns:rdf="http://www.w3.org/1999/02/22-rdf-syntax-ns#"
   xmlns:svg="http://www.w3.org/2000/svg"
   xmlns="http://www.w3.org/2000/svg"
   viewBox="0 0 586.81335 176.84"
   height="176.84"
   width="586.81335"
   xml:space="preserve"
   id="svg2"
   version="1.1"><metadata
     id="metadata8"><rdf:RDF><cc:Work
         rdf:about=""><dc:format>image/svg+xml</dc:format><dc:type
           rdf:resource="http://purl.org/dc/dcmitype/StillImage" /></cc:Work></rdf:RDF></metadata><defs
     id="defs6" /><g
     transform="matrix(1.3333333,0,0,-1.3333333,0,176.84)"
     id="g10"><g
       transform="scale(0.1)"
       id="g12"><path
         id="path14"
         style="fill:#f8a70e;fill-opacity:1;fill-rule:evenodd;stroke:none"
         d="M 2730.39,289.051 C 2474.7,100.328 2103.99,0 1784.71,0 1337.29,0 934.426,165.359 629.48,440.684 c -23.847,21.554 -2.531,51.183 26.254,34.445 328.914,-191.5 735.756,-306.758 1155.836,-306.758 283.39,0 594.96,58.777 881.6,180.418 43.24,18.305 79.49,-28.551 37.22,-59.738" /><path
         id="path16"
         style="fill:#f8a70e;fill-opacity:1;fill-rule:evenodd;stroke:none"
         d="m 2836.81,410.512 c -32.76,41.914 -216.19,19.875 -298.69,9.996 -24.93,-3.008 -28.78,18.789 -6.26,34.566 146.33,102.856 386.12,73.106 414.06,38.781 28.07,-34.804 -7.34,-275.195 -144.52,-389.976 -21.08,-17.7071 -41.19,-8.1876 -31.8,15.051 30.83,77.082 99.97,249.672 67.21,291.582" /><path
         id="path18"
         style="fill:#211c1d;fill-opacity:1;fill-rule:evenodd;stroke:none"
         d="m 2543.99,1181.39 v 99.85 c 0.12,15.3 11.56,25.41 25.29,25.41 h 447.79 c 14.33,0 25.77,-10.48 25.77,-25.29 v -85.63 c -0.12,-14.34 -12.17,-33.12 -33.72,-62.87 L 2777.27,801.656 c 86,2.047 177.17,-10.84 255.33,-54.797 17.59,-9.879 22.4,-24.57 23.73,-39.023 V 601.25 c 0,-14.695 -16.02,-31.676 -32.88,-22.766 -137.9,72.145 -320.73,80.094 -473.08,-0.961 -15.66,-8.191 -31.92,8.551 -31.92,23.243 v 101.289 c 0,16.258 0.25,43.961 16.63,68.648 l 268.69,385.527 h -233.89 c -14.33,0 -25.77,10.23 -25.89,25.16" /><path
         id="path20"
         style="fill:#211c1d;fill-opacity:1;fill-rule:evenodd;stroke:none"
         d="M 910.746,557.445 H 774.531 c -13.004,0.844 -23.363,10.598 -24.328,23.004 v 699.141 c 0,13.97 11.805,25.17 26.379,25.17 h 126.82 c 13.246,-0.6 23.965,-10.72 24.809,-23.49 v -91.29 h 2.527 c 33,88.29 95.392,129.47 179.212,129.47 85.27,0 138.62,-41.18 176.8,-129.47 33,88.29 108.04,129.47 188.13,129.47 57.2,0 119.59,-23.48 157.65,-76.47 43.24,-58.78 34.44,-144.17 34.44,-219.2 l -0.12,-441.163 c 0,-13.969 -11.8,-25.172 -26.25,-25.172 h -136.1 c -13.73,0.844 -24.44,11.684 -24.44,25.051 v 370.707 c 0,29.387 2.52,102.977 -3.86,130.917 -10.24,47.09 -40.71,60.34 -80.09,60.34 -33.12,0 -67.44,-22.04 -81.41,-57.45 -13.98,-35.29 -12.65,-94.061 -12.65,-133.807 V 582.617 c 0,-13.969 -11.8,-25.172 -26.26,-25.172 H 1139.7 c -13.73,0.844 -24.45,11.684 -24.45,25.051 l -0.12,370.707 c 0,77.927 12.65,192.697 -83.94,192.697 -97.92,0 -94.065,-111.76 -94.065,-192.697 l -0.121,-370.586 c 0,-13.969 -11.684,-25.172 -26.258,-25.172" /><path
         id="path22"
         style="fill:#211c1d;fill-opacity:1;fill-rule:evenodd;stroke:none"
         d="m 3429.58,1176.81 c -100.45,0 -106.83,-136.82 -106.83,-222.087 0,-85.391 -1.21,-267.856 105.5,-267.856 105.62,0 110.68,147.176 110.68,236.903 0,58.89 -2.53,129.47 -20.35,185.35 -15.3,48.54 -45.77,67.69 -89,67.69 m -1.33,142.72 c 202.22,0 311.57,-173.67 311.57,-394.315 0,-213.297 -120.8,-382.512 -311.57,-382.512 -198.36,0 -306.39,173.672 -306.39,389.856 0,217.751 109.35,386.971 306.39,386.971" /><path
         id="path24"
         style="fill:#211c1d;fill-opacity:1;fill-rule:evenodd;stroke:none"
         d="m 4002.02,557.445 h -135.74 c -13.61,0.844 -24.45,11.684 -24.45,25.051 L 3841.59,1282 c 1.21,12.77 12.53,22.76 26.26,22.76 h 126.34 c 11.8,-0.6 21.68,-8.67 24.2,-19.51 V 1178.3 h 2.53 c 38.18,95.63 91.54,141.15 185.6,141.15 61.06,0 120.8,-22.04 158.97,-82.38 35.65,-55.88 35.65,-150.06 35.65,-217.75 V 579.484 c -1.56,-12.402 -12.64,-22.039 -26.13,-22.039 h -136.58 c -12.64,0.844 -22.76,10.118 -24.2,22.039 v 379.621 c 0,76.475 8.91,188.245 -85.27,188.245 -33,0 -63.6,-22.04 -78.77,-55.89 -19.03,-42.63 -21.68,-85.26 -21.68,-132.355 V 582.617 c -0.24,-13.969 -12.04,-25.172 -26.49,-25.172" /><path
         id="path26"
         style="fill:#211c1d;fill-opacity:1;fill-rule:evenodd;stroke:none"
         d="m 2324.39,559.203 c -9.03,-8.066 -22.04,-8.672 -32.15,-3.129 -45.29,37.574 -53.36,54.918 -78.05,90.688 -74.79,-76.117 -127.78,-99 -224.61,-99 -114.66,0 -203.9,70.82 -203.9,212.332 0,110.562 59.85,185.715 145.24,222.687 73.95,32.399 177.17,38.299 256.17,47.099 v 17.7 c 0,32.52 2.53,70.81 -16.62,98.76 -16.5,25.17 -48.41,35.41 -76.47,35.41 -51.91,0 -98.04,-26.62 -109.48,-81.78 -2.29,-12.29 -11.32,-24.45 -23.61,-25.05 l -132,14.33 c -11.2,2.53 -23.6,11.44 -20.35,28.42 30.35,160.19 175,208.6 304.59,208.6 66.24,0 152.95,-17.7 205.1,-67.81 66.36,-61.9 59.98,-144.52 59.98,-234.49 V 811.762 c 0,-63.832 26.5,-91.774 51.43,-126.219 8.67,-12.406 10.59,-27.098 -0.49,-36.133 -27.82,-23.363 -77.32,-66.359 -104.41,-90.566 z m -137.3,332.168 c 0,-53.113 1.21,-97.312 -25.53,-144.523 -21.68,-38.301 -56,-61.907 -94.3,-61.907 -52.27,0 -82.86,39.743 -82.86,98.758 0,115.981 104.06,137.059 202.69,137.059 v -29.387" /><path
         id="path28"
         style="fill:#211c1d;fill-opacity:1;fill-rule:evenodd;stroke:none"
         d="m 538.719,559.203 c -9.035,-8.066 -22.043,-8.672 -32.16,-3.129 -45.286,37.574 -53.352,54.918 -78.164,90.688 -74.668,-76.117 -127.665,-99 -224.493,-99 C 89.2461,547.762 0,618.582 0,760.094 c 0,110.562 59.8594,185.715 145.246,222.687 73.949,32.399 177.164,38.299 256.172,47.099 v 17.7 c 0,32.52 2.527,70.81 -16.621,98.76 -16.5,25.17 -48.414,35.41 -76.477,35.41 -51.91,0 -98.156,-26.62 -109.476,-81.78 -2.289,-12.29 -11.324,-24.45 -23.606,-25.05 l -131.9997,14.33 c -11.2031,2.53 -23.6055,11.44 -20.3555,28.42 30.3516,160.19 174.9962,208.6 304.5862,208.6 66.242,0 152.957,-17.7 205.226,-67.81 66.243,-61.9 59.856,-144.52 59.856,-234.49 V 811.762 c 0,-63.832 26.5,-91.774 51.429,-126.219 8.672,-12.406 10.598,-27.098 -0.484,-36.133 -27.82,-23.363 -77.32,-66.359 -104.418,-90.566 z M 401.418,891.371 c 0,-53.113 1.203,-97.312 -25.531,-144.523 -21.68,-38.301 -56.004,-61.907 -94.305,-61.907 -52.269,0 -82.859,39.743 -82.859,98.758 0,115.981 104.175,137.059 202.695,137.059 v -29.387" /></g></g></svg>