<?xml version="1.0" encoding="UTF-8" standalone="no"?>
<svg
   xmlns:dc="http://purl.org/dc/elements/1.1/"
   xmlns:cc="http://creativecommons.org/ns#"
   xmlns:rdf="http://www.w3.org/1999/02/22-rdf-syntax-ns#"
   xmlns:svg="http://www.w3.org/2000/svg"
   xmlns="http://www.w3.org/2000/svg"
   viewBox="0 0 340.22668 107"
   height="107"
   width="340.22668"
   xml:space="preserve"
   id="svg2"
   version="1.1"><metadata
     id="metadata8"><rdf:RDF><cc:Work
         rdf:about=""><dc:format>image/svg+xml</dc:format><dc:type
           rdf:resource="http://purl.org/dc/dcmitype/StillImage" /></cc:Work></rdf:RDF></metadata><defs
     id="defs6" /><g
     transform="matrix(1.3333333,0,0,-1.3333333,0,107)"
     id="g10"><g
       transform="scale(0.1)"
       id="g12"><path
         id="path14"
         style="fill:#5778c5;fill-opacity:1;fill-rule:nonzero;stroke:none"
         d="m 318.703,516.625 v -85.871 h 205.254 c -6.285,-48.172 -22.344,-83.43 -46.777,-108.211 -30.02,-30.02 -76.793,-62.832 -158.477,-62.832 -126.363,0 -225.1522,101.926 -225.1522,228.293 0,126.363 98.7892,228.289 225.1522,228.289 68.067,0 117.985,-26.875 154.637,-61.434 l 60.39,60.387 c -50.964,49.57 -119.382,87.27 -215.027,87.27 C 145.563,802.516 0,661.488 0,488.352 0,315.211 145.563,174.188 318.703,174.188 c 93.551,0 164.063,30.718 219.215,87.964 56.551,56.551 74.352,136.489 74.352,200.715 0,19.899 -1.395,38.399 -4.536,53.758 H 318.703" /><path
         id="path16"
         style="fill:#eb3131;fill-opacity:1;fill-rule:nonzero;stroke:none"
         d="m 868.84,260.758 c -61.438,0 -114.496,50.613 -114.496,122.871 0,72.957 53.058,122.875 114.496,122.875 61.433,0 114.496,-49.918 114.496,-122.875 0,-72.258 -53.063,-122.871 -114.496,-122.871 z m 0,325.683 c -112.055,0 -203.512,-85.175 -203.512,-202.812 0,-116.59 91.457,-202.809 203.512,-202.809 112.051,0 203.51,85.871 203.51,202.809 0,117.637 -91.459,202.812 -203.51,202.812" /><path
         id="path18"
         style="fill:#5778c5;fill-opacity:1;fill-rule:nonzero;stroke:none"
         d="m 1764.21,260.758 c -61.44,0 -108.22,52.359 -108.22,122.871 0,71.559 46.78,122.875 108.22,122.875 60.73,0 108.21,-52.363 108.21,-123.574 0.35,-70.86 -47.48,-122.172 -108.21,-122.172 z m 102.27,280.305 h -3.14 c -19.89,23.734 -58.29,45.378 -106.81,45.378 -101.23,0 -189.55,-88.316 -189.55,-202.812 0,-113.797 88.32,-202.809 189.55,-202.809 48.52,0 86.92,21.641 106.81,46.075 h 3.14 v -28.274 c 0,-77.492 -41.54,-119.0312 -108.21,-119.0312 -54.45,0 -88.31,39.0942 -102.28,72.2582 L 1578.5,119.73 C 1600.84,65.9766 1659.83,0 1758.27,0 c 104.37,0 192.69,61.4375 192.69,211.188 v 364.781 h -84.48 v -34.906" /><path
         id="path20"
         style="fill:#f6b60b;fill-opacity:1;fill-rule:nonzero;stroke:none"
         d="m 1322.63,260.758 c -61.44,0 -114.49,50.613 -114.49,122.871 0,72.957 53.05,122.875 114.49,122.875 61.44,0 114.5,-49.918 114.5,-122.875 0,-72.258 -53.06,-122.871 -114.5,-122.871 z m 0,325.683 c -112.05,0 -203.51,-85.175 -203.51,-202.812 0,-116.59 91.46,-202.809 203.51,-202.809 112.05,0 203.51,85.871 203.51,202.809 0,117.637 -91.46,202.812 -203.51,202.812" /><path
         id="path22"
         style="fill:#3bad49;fill-opacity:1;fill-rule:nonzero;stroke:none"
         d="m 2020.77,794.137 h 87.62 V 180.82 h -87.62 v 613.317" /><path
         id="path24"
         style="fill:#eb3131;fill-opacity:1;fill-rule:nonzero;stroke:none"
         d="m 2372.64,510.344 c 35.95,0 66.67,-18.5 76.79,-44.684 l -183.26,-75.746 c 0,85.172 60.39,120.43 106.47,120.43 z m 6.28,-249.586 c -45.38,0 -77.49,20.594 -98.44,61.433 l 271.23,112.055 -9.07,23.035 c -16.76,45.383 -68.42,129.16 -173.49,129.16 -104.38,0 -191.29,-82.035 -191.29,-202.812 0,-113.797 85.87,-202.809 201.06,-202.809 92.85,0 146.61,56.899 168.95,89.711 l -69.12,46.078 c -23.03,-33.511 -54.45,-55.851 -99.83,-55.851 v 0" /></g></g></svg>